PathFileType	4	(X/Y/Z)	C:/Users/dbak576/Desktop/Duncan Bakke Modelling Files/H25s1/Static_H25s1.trc	
DataRate	CameraRate	NumFrames	NumMarkers	Units	OrigDataRate	OrigDataStartFrame	OrigNumFrames	
200.00	200.00	4	62	mm	200.00	223	296	
Frame#	Time	LFHD			RFHD			LBHD			RBHD			C7			T10			CLAV			STRN			RBack			LASI			RASI			LPSI			RPSI			RACR1			RUA1			RElbow			RElbowM			RFA1			RWRR			RWRU			RCAR			LACR1			LUA1			LElbow			LElbowM			LFA1			LWRR			LWRU			LCAR			RTH1			RTH3			RTH2			RTH4			RLFC			RMFC			RTB1			RTB3			RTB2			RTB4			RLMAL			RMMAL			RCAL			RMT1			RMT5			RToe			LTH1			LTH3			LTH2			LTH4			LLFC			LMFC			LTB1			LTB3			LTB2			LTB4			LLMAL			LMMAL			LCAL			LMT1			LMT5			LToe			*61			
		X1	Y1	Z1	X2	Y2	Z2	X3	Y3	Z3	X4	Y4	Z4	X5	Y5	Z5	X6	Y6	Z6	X7	Y7	Z7	X8	Y8	Z8	X9	Y9	Z9	X10	Y10	Z10	X11	Y11	Z11	X12	Y12	Z12	X13	Y13	Z13	X14	Y14	Z14	X15	Y15	Z15	X16	Y16	Z16	X17	Y17	Z17	X18	Y18	Z18	X19	Y19	Z19	X20	Y20	Z20	X21	Y21	Z21	X22	Y22	Z22	X23	Y23	Z23	X24	Y24	Z24	X25	Y25	Z25	X26	Y26	Z26	X27	Y27	Z27	X28	Y28	Z28	X29	Y29	Z29	X30	Y30	Z30	X31	Y31	Z31	X32	Y32	Z32	X33	Y33	Z33	X34	Y34	Z34	X35	Y35	Z35	X36	Y36	Z36	X37	Y37	Z37	X38	Y38	Z38	X39	Y39	Z39	X40	Y40	Z40	X41	Y41	Z41	X42	Y42	Z42	X43	Y43	Z43	X44	Y44	Z44	X45	Y45	Z45	X46	Y46	Z46	X47	Y47	Z47	X48	Y48	Z48	X49	Y49	Z49	X50	Y50	Z50	X51	Y51	Z51	X52	Y52	Z52	X53	Y53	Z53	X54	Y54	Z54	X55	Y55	Z55	X56	Y56	Z56	X57	Y57	Z57	X58	Y58	Z58	X59	Y59	Z59	X60	Y60	Z60	X61	Y61	Z61	X62	Y62	Z62	

223	1.110	-63.97888	-266.75751	1733.19775	40.93559	-272.98996	1727.38086	-93.74002	-433.72559	1724.42017	47.82824	-444.94031	1720.55017	-22.00444	-513.61102	1572.22705	-30.84115	-511.62677	1210.57373	-36.19321	-332.88095	1505.54980	-15.41027	-247.91353	1341.18213	86.52219	-577.67328	1470.17383	-175.02721	-295.21277	1049.14148	144.48149	-323.63007	1050.65979	-87.42111	-523.86597	1097.08533	21.61119	-530.89758	1085.83093	133.64342	-430.50314	1570.04529	283.33420	-422.97650	1519.27869	430.46500	-393.69464	1455.15845	401.07184	-319.78946	1409.25378	564.68585	-337.78397	1501.42480	685.48077	-261.27234	1513.20996	697.04315	-282.20963	1430.62317	747.21326	-278.31693	1477.84509	-186.07341	-439.24661	1559.57043	-334.40952	-425.78247	1521.95093	-491.05612	-390.78549	1473.45398	-466.93839	-328.96442	1412.75146	-625.02173	-334.96329	1512.78198	-735.03918	-258.92770	1517.93005	-741.55737	-299.69193	1435.84387	-791.84204	-287.26868	1492.90149	192.38496	-459.89597	834.60931	196.89906	-463.34714	662.12000	209.18451	-404.22870	747.20233	194.96611	-463.69266	746.25037	200.90559	-465.52429	523.03363	51.79308	-463.05750	502.06854	133.67996	-422.27786	367.34076	138.47661	-451.39032	196.72887	197.56754	-440.84811	284.85107	135.47830	-437.13327	281.61072	187.93298	-516.01642	80.58518	96.43049	-482.88629	99.43867	150.19295	-576.01538	43.87374	135.97212	-354.32169	52.01106	231.18576	-397.06250	32.64452	149.31548	-300.84109	33.64857	-243.93938	-392.33051	833.63434	-224.45753	-411.77826	661.22620	-219.67091	-345.24619	742.26447	-238.69557	-400.99979	748.48328	-209.36877	-458.85965	516.68414	-67.34667	-452.09686	505.05197	-115.23199	-431.10419	361.69028	-120.94518	-452.75494	191.74336	-177.80659	-425.91074	275.99683	-117.16388	-444.36374	277.21075	-186.49585	-504.86121	72.85758	-87.33894	-481.62411	91.18448	-149.63405	-569.65588	44.80591	-133.62115	-342.16537	45.01387	-224.04512	-390.01907	28.89862	-153.75421	-285.41113	27.18082	-222.65530	-461.31628	917.23846 
224	1.115	-63.95221	-266.63696	1733.22620	40.91286	-272.88016	1727.37781	-93.62563	-433.60748	1724.44189	47.79542	-444.91483	1720.62952	-22.00217	-513.52124	1572.25659	-30.84855	-511.56894	1210.57410	-36.19140	-332.82077	1505.53015	-15.42359	-247.81584	1341.16663	86.52759	-577.67242	1470.19141	-175.02785	-295.20892	1049.13879	144.46565	-323.62732	1050.64453	-87.42730	-523.79913	1097.08508	21.60680	-530.85498	1085.85107	133.55458	-430.39502	1569.97620	283.35550	-422.89783	1519.23340	430.48239	-393.66431	1455.17737	401.06979	-319.77808	1409.26208	564.66382	-337.72583	1501.45752	685.48468	-261.17603	1513.20020	697.03235	-282.14706	1430.56409	747.21686	-278.24368	1477.82861	-186.00742	-439.12613	1559.56116	-334.42712	-425.73898	1521.96838	-491.01230	-390.75214	1473.45300	-466.90509	-328.94366	1412.75635	-624.93787	-334.85443	1512.71521	-735.01428	-258.88150	1517.92761	-741.61841	-299.70654	1435.91028	-791.81653	-287.21524	1492.89429	192.38528	-459.89874	834.61121	196.82196	-463.28180	662.16327	209.16588	-404.17722	747.19769	194.87358	-463.61926	746.23236	200.86308	-465.49170	523.02057	51.79039	-463.05704	502.06561	133.81538	-421.99857	367.16882	138.47473	-451.38699	196.72852	197.56975	-440.84558	284.85040	135.44041	-437.12994	281.58493	187.93298	-516.01648	80.58524	96.43017	-482.87540	99.43089	150.10234	-575.97827	43.88220	135.97302	-354.32397	52.01605	231.17746	-397.05292	32.64392	149.31401	-300.85376	33.65130	-243.92201	-392.30585	833.60040	-224.51007	-411.78534	661.25031	-219.66823	-345.25012	742.26434	-238.73987	-401.06873	748.33337	-209.36725	-458.85107	516.69885	-67.34745	-452.10022	505.04279	-115.24004	-431.11478	361.68121	-120.94666	-452.74387	191.74644	-177.79839	-425.88379	275.99670	-117.18997	-444.34976	277.23154	-186.30145	-504.70111	72.89714	-87.33238	-481.62811	91.18721	-149.67247	-569.69983	44.82262	-133.61884	-342.16913	45.00426	-224.51042	-390.25403	28.92475	-153.72998	-285.42044	27.17177	-222.74097	-461.26770	917.22186 
225	1.120	-63.86752	-266.52347	1733.19849	40.96439	-272.85724	1727.36108	-93.60629	-433.60117	1724.42139	47.89563	-444.79282	1720.54785	-21.96756	-513.46423	1572.24512	-30.84547	-511.56268	1210.57227	-36.19432	-332.70822	1505.50806	-15.43859	-247.74304	1341.16968	86.60069	-577.59613	1470.19910	-175.01303	-295.16812	1049.13538	144.47992	-323.60120	1050.65234	-87.42651	-523.79559	1097.08459	21.61277	-530.85083	1085.85132	133.66446	-430.34216	1570.00745	283.37381	-422.83804	1519.24390	430.53778	-393.62674	1455.17566	401.05240	-319.72989	1409.25195	564.67444	-337.67139	1501.40845	685.39685	-261.16757	1513.22876	697.02686	-282.14639	1430.56128	747.26056	-278.20248	1477.83679	-185.99556	-439.08304	1559.55396	-334.37073	-425.62680	1521.95935	-491.02637	-390.68082	1473.49646	-466.92059	-328.85779	1412.82129	-624.99896	-334.84564	1512.77527	-734.97009	-258.77509	1517.96948	-741.71082	-299.65625	1435.98059	-791.79065	-287.11331	1492.96240	192.35854	-459.87769	834.62958	196.79298	-463.22305	662.16028	209.16098	-404.16727	747.18439	194.92766	-463.63492	746.22382	200.88045	-465.45035	523.02307	51.81432	-463.03894	502.07339	133.67320	-422.21335	367.33820	138.46033	-451.33569	196.75519	197.55345	-440.85019	284.84207	135.44624	-437.08344	281.62302	187.94649	-515.98688	80.58624	96.44656	-482.88394	99.38046	150.18124	-576.01721	43.87121	135.97900	-354.31827	52.03139	231.16771	-397.06802	32.65158	149.33432	-300.85614	33.63853	-243.94302	-392.32880	833.62146	-224.53136	-411.74390	661.25671	-219.66704	-345.24939	742.26239	-238.80251	-401.06287	748.36365	-209.39902	-458.84842	516.69177	-67.34917	-452.09436	505.03699	-115.25788	-431.14429	361.63651	-120.95387	-452.72275	191.74989	-177.80055	-425.88135	275.99451	-117.18716	-444.34705	277.24295	-186.24933	-504.66959	72.81630	-87.34144	-481.64838	91.19650	-149.65576	-569.68402	44.84138	-133.62183	-342.16733	45.01871	-224.37302	-390.16809	28.90553	-153.73004	-285.41949	27.18121	-222.75412	-461.26477	917.21838 
226	1.125	-63.85308	-266.39249	1733.15381	40.98155	-272.74887	1727.38403	-93.62391	-433.52173	1724.46057	47.92125	-444.66071	1720.57520	-21.93415	-513.36798	1572.25854	-30.84802	-511.48462	1210.57153	-36.18465	-332.64716	1505.50208	-15.40376	-247.69731	1341.16614	86.60786	-577.59106	1470.21606	-175.05695	-295.13022	1049.15674	144.44771	-323.54678	1050.68762	-87.45708	-523.77032	1097.11401	21.56508	-530.80029	1085.84802	133.61751	-430.24774	1569.94592	283.40927	-422.80920	1519.26917	430.56845	-393.52539	1455.18738	401.07037	-319.72525	1409.18689	564.72174	-337.61038	1501.41785	685.41980	-261.12927	1513.24036	697.03168	-282.08194	1430.56458	747.29095	-278.17477	1477.84521	-186.18837	-439.20950	1559.66003	-334.34329	-425.53778	1521.98669	-490.97946	-390.62317	1473.52380	-466.92377	-328.84790	1412.80847	-624.92255	-334.78824	1512.80786	-734.93756	-258.65884	1517.95715	-741.59991	-299.51880	1435.96118	-791.80957	-287.03793	1492.99097	192.34421	-459.83255	834.60181	196.77687	-463.25247	662.15363	209.12726	-404.14008	747.19092	194.85443	-463.59494	746.20392	200.87625	-465.44955	523.02380	51.79562	-463.05142	502.06531	133.64687	-422.22961	367.35321	138.45819	-451.33209	196.75792	197.53490	-440.84274	284.86536	135.44740	-437.07565	281.62640	187.94839	-515.98315	80.58604	96.43461	-482.87766	99.42841	150.09419	-575.98169	43.90420	135.97473	-354.32245	52.01713	231.12947	-397.06464	32.68258	149.31699	-300.86096	33.63517	-243.96300	-392.28085	833.58844	-224.53665	-411.71683	661.26239	-219.66556	-345.21243	742.26056	-238.73055	-401.00418	748.30280	-209.41882	-458.85638	516.69788	-67.35226	-452.08871	505.04605	-115.27565	-431.11652	361.68130	-120.96921	-452.79492	191.72583	-177.80655	-425.86224	275.99579	-117.18535	-444.29874	277.25540	-186.25790	-504.66629	72.87229	-87.33208	-481.63306	91.18887	-149.61215	-569.64465	44.81340	-133.61226	-342.18753	45.01461	-224.51601	-390.25864	28.92749	-153.68274	-285.38647	27.12335	-222.81558	-461.28186	917.24017 
